<?xml version="1.0" standalone="no"?><svg xmlns="http://www.w3.org/2000/svg" viewBox="0 0 1440 320"><path fill="#ffffff" fill-opacity="1" d="M0,224L18.5,186.7C36.9,149,74,75,111,58.7C147.7,43,185,85,222,96C258.5,107,295,85,332,69.3C369.2,53,406,43,443,58.7C480,75,517,117,554,160C590.8,203,628,245,665,234.7C701.5,224,738,160,775,117.3C812.3,75,849,53,886,85.3C923.1,117,960,203,997,218.7C1033.8,235,1071,181,1108,154.7C1144.6,128,1182,128,1218,112C1255.4,96,1292,64,1329,74.7C1366.2,85,1403,139,1422,165.3L1440,192L1440,0L1421.5,0C1403.1,0,1366,0,1329,0C1292.3,0,1255,0,1218,0C1181.5,0,1145,0,1108,0C1070.8,0,1034,0,997,0C960,0,923,0,886,0C849.2,0,812,0,775,0C738.5,0,702,0,665,0C627.7,0,591,0,554,0C516.9,0,480,0,443,0C406.2,0,369,0,332,0C295.4,0,258,0,222,0C184.6,0,148,0,111,0C73.8,0,37,0,18,0L0,0Z"></path></svg>